<svg width="130" height="20" viewBox="0 0 130 20" fill="none" xmlns="http://www.w3.org/2000/svg">
<path d="M21.928 16.224C21.16 16.224 20.4613 16.0533 19.832 15.712C19.2133 15.36 18.7173 14.8533 18.344 14.192C17.9813 13.52 17.8 12.704 17.8 11.744V9.056C17.8 7.616 18.2053 6.512 19.016 5.744C19.8267 4.96533 20.9253 4.576 22.312 4.576C23.688 4.576 24.7493 4.944 25.496 5.68C26.2533 6.40533 26.632 7.392 26.632 8.64V8.704H24.552V8.576C24.552 8.18133 24.4667 7.824 24.296 7.504C24.136 7.184 23.8907 6.93333 23.56 6.752C23.2293 6.56 22.8133 6.464 22.312 6.464C21.5653 6.464 20.9787 6.69333 20.552 7.152C20.1253 7.61067 19.912 8.23467 19.912 9.024V11.776C19.912 12.5547 20.1253 13.184 20.552 13.664C20.9787 14.1333 21.576 14.368 22.344 14.368C23.112 14.368 23.672 14.1653 24.024 13.76C24.376 13.3547 24.552 12.8427 24.552 12.224V12.064H21.896V10.272H26.632V16H24.68V14.928H24.392C24.3173 15.1093 24.1947 15.3013 24.024 15.504C23.864 15.7067 23.6187 15.8773 23.288 16.016C22.9573 16.1547 22.504 16.224 21.928 16.224ZM28.6497 16V4.8H32.5698L34.5058 14.56H34.7938L36.7298 4.8H40.6498V16H38.6018V6.352H38.3138L36.3938 16H32.9058L30.9858 6.352H30.6978V16H28.6497ZM46.8216 16V4.8H51.6856C52.3896 4.8 53.003 4.92267 53.5256 5.168C54.0483 5.41333 54.4536 5.76 54.7416 6.208C55.0296 6.656 55.1736 7.184 55.1736 7.792V7.984C55.1736 8.656 55.0136 9.2 54.6936 9.616C54.3736 10.032 53.979 10.336 53.5096 10.528V10.816C53.9363 10.8373 54.267 10.9867 54.5016 11.264C54.7363 11.5307 54.8536 11.888 54.8536 12.336V16H52.7416V12.64C52.7416 12.384 52.6723 12.176 52.5336 12.016C52.4056 11.856 52.187 11.776 51.8776 11.776H48.9336V16H46.8216ZM48.9336 9.856H51.4616C51.963 9.856 52.3523 9.72267 52.6296 9.456C52.9176 9.17867 53.0616 8.816 53.0616 8.368V8.208C53.0616 7.76 52.923 7.40267 52.6456 7.136C52.3683 6.85867 51.9736 6.72 51.4616 6.72H48.9336V9.856ZM60.771 16.224C59.9817 16.224 59.2723 16.064 58.643 15.744C58.0137 15.424 57.5177 14.96 57.155 14.352C56.7923 13.744 56.611 13.0133 56.611 12.16V11.904C56.611 11.0507 56.7923 10.32 57.155 9.712C57.5177 9.104 58.0137 8.64 58.643 8.32C59.2723 8 59.9817 7.84 60.771 7.84C61.5603 7.84 62.2697 8 62.899 8.32C63.5283 8.64 64.0243 9.104 64.387 9.712C64.7497 10.32 64.931 11.0507 64.931 11.904V12.16C64.931 13.0133 64.7497 13.744 64.387 14.352C64.0243 14.96 63.5283 15.424 62.899 15.744C62.2697 16.064 61.5603 16.224 60.771 16.224ZM60.771 14.432C61.3897 14.432 61.9017 14.2347 62.307 13.84C62.7123 13.4347 62.915 12.8587 62.915 12.112V11.952C62.915 11.2053 62.7123 10.6347 62.307 10.24C61.9123 9.83467 61.4003 9.632 60.771 9.632C60.1523 9.632 59.6403 9.83467 59.235 10.24C58.8297 10.6347 58.627 11.2053 58.627 11.952V12.112C58.627 12.8587 58.8297 13.4347 59.235 13.84C59.6403 14.2347 60.1523 14.432 60.771 14.432ZM71.5599 16.224C70.8452 16.224 70.2959 16.1013 69.9119 15.856C69.5279 15.6107 69.2452 15.3387 69.0639 15.04H68.7759V16H66.7919V4.8H68.8079V8.976H69.0959C69.2132 8.784 69.3679 8.60267 69.5599 8.432C69.7625 8.26133 70.0239 8.12267 70.3439 8.016C70.6745 7.89867 71.0799 7.84 71.5599 7.84C72.1999 7.84 72.7919 8 73.3359 8.32C73.8799 8.62933 74.3172 9.088 74.6479 9.696C74.9785 10.304 75.1439 11.04 75.1439 11.904V12.16C75.1439 13.024 74.9785 13.76 74.6479 14.368C74.3172 14.976 73.8799 15.44 73.3359 15.76C72.7919 16.0693 72.1999 16.224 71.5599 16.224ZM70.9519 14.464C71.5705 14.464 72.0879 14.2667 72.5039 13.872C72.9199 13.4667 73.1279 12.88 73.1279 12.112V11.952C73.1279 11.184 72.9199 10.6027 72.5039 10.208C72.0985 9.80267 71.5812 9.6 70.9519 9.6C70.3332 9.6 69.8159 9.80267 69.3999 10.208C68.9839 10.6027 68.7759 11.184 68.7759 11.952V12.112C68.7759 12.88 68.9839 13.4667 69.3999 13.872C69.8159 14.2667 70.3332 14.464 70.9519 14.464ZM76.995 16V8.064H79.011V16H76.995ZM78.003 7.136C77.6403 7.136 77.331 7.01867 77.075 6.784C76.8297 6.54933 76.707 6.24 76.707 5.856C76.707 5.472 76.8297 5.16267 77.075 4.928C77.331 4.69333 77.6403 4.576 78.003 4.576C78.3763 4.576 78.6857 4.69333 78.931 4.928C79.1763 5.16267 79.299 5.472 79.299 5.856C79.299 6.24 79.1763 6.54933 78.931 6.784C78.6857 7.01867 78.3763 7.136 78.003 7.136ZM81.245 16V8.064H83.229V9.104H83.517C83.645 8.82667 83.885 8.56533 84.237 8.32C84.589 8.064 85.1223 7.936 85.837 7.936C86.4557 7.936 86.9943 8.08 87.453 8.368C87.9223 8.64533 88.285 9.03467 88.541 9.536C88.797 10.0267 88.925 10.6027 88.925 11.264V16H86.909V11.424C86.909 10.8267 86.7597 10.3787 86.461 10.08C86.173 9.78133 85.757 9.632 85.213 9.632C84.5943 9.632 84.1143 9.84 83.773 10.256C83.4317 10.6613 83.261 11.232 83.261 11.968V16H81.245ZM91.1044 16V4.8H93.1204V9.04H93.4084C93.4937 8.86933 93.627 8.69867 93.8084 8.528C93.9897 8.35733 94.2297 8.21867 94.5284 8.112C94.8377 7.99467 95.227 7.936 95.6964 7.936C96.315 7.936 96.8537 8.08 97.3124 8.368C97.7817 8.64533 98.1444 9.03467 98.4004 9.536C98.6564 10.0267 98.7844 10.6027 98.7844 11.264V16H96.7684V11.424C96.7684 10.8267 96.619 10.3787 96.3204 10.08C96.0324 9.78133 95.6164 9.632 95.0724 9.632C94.4537 9.632 93.9737 9.84 93.6324 10.256C93.291 10.6613 93.1204 11.232 93.1204 11.968V16H91.1044ZM104.74 16.224C103.95 16.224 103.241 16.064 102.612 15.744C101.982 15.424 101.486 14.96 101.124 14.352C100.761 13.744 100.58 13.0133 100.58 12.16V11.904C100.58 11.0507 100.761 10.32 101.124 9.712C101.486 9.104 101.982 8.64 102.612 8.32C103.241 8 103.95 7.84 104.74 7.84C105.529 7.84 106.238 8 106.868 8.32C107.497 8.64 107.993 9.104 108.356 9.712C108.718 10.32 108.9 11.0507 108.9 11.904V12.16C108.9 13.0133 108.718 13.744 108.356 14.352C107.993 14.96 107.497 15.424 106.868 15.744C106.238 16.064 105.529 16.224 104.74 16.224ZM104.74 14.432C105.358 14.432 105.87 14.2347 106.276 13.84C106.681 13.4347 106.884 12.8587 106.884 12.112V11.952C106.884 11.2053 106.681 10.6347 106.276 10.24C105.881 9.83467 105.369 9.632 104.74 9.632C104.121 9.632 103.609 9.83467 103.204 10.24C102.798 10.6347 102.596 11.2053 102.596 11.952V12.112C102.596 12.8587 102.798 13.4347 103.204 13.84C103.609 14.2347 104.121 14.432 104.74 14.432ZM114.537 16.224C113.747 16.224 113.038 16.064 112.409 15.744C111.779 15.424 111.283 14.96 110.921 14.352C110.558 13.744 110.377 13.0133 110.377 12.16V11.904C110.377 11.0507 110.558 10.32 110.921 9.712C111.283 9.104 111.779 8.64 112.409 8.32C113.038 8 113.747 7.84 114.537 7.84C115.326 7.84 116.035 8 116.665 8.32C117.294 8.64 117.79 9.104 118.153 9.712C118.515 10.32 118.697 11.0507 118.697 11.904V12.16C118.697 13.0133 118.515 13.744 118.153 14.352C117.79 14.96 117.294 15.424 116.665 15.744C116.035 16.064 115.326 16.224 114.537 16.224ZM114.537 14.432C115.155 14.432 115.667 14.2347 116.073 13.84C116.478 13.4347 116.681 12.8587 116.681 12.112V11.952C116.681 11.2053 116.478 10.6347 116.073 10.24C115.678 9.83467 115.166 9.632 114.537 9.632C113.918 9.632 113.406 9.83467 113.001 10.24C112.595 10.6347 112.393 11.2053 112.393 11.952V12.112C112.393 12.8587 112.595 13.4347 113.001 13.84C113.406 14.2347 113.918 14.432 114.537 14.432ZM123.758 16.224C123.128 16.224 122.536 16.0693 121.982 15.76C121.438 15.44 121 14.976 120.67 14.368C120.339 13.76 120.174 13.024 120.174 12.16V11.904C120.174 11.04 120.339 10.304 120.67 9.696C121 9.088 121.438 8.62933 121.982 8.32C122.526 8 123.118 7.84 123.758 7.84C124.238 7.84 124.638 7.89867 124.958 8.016C125.288 8.12267 125.555 8.26133 125.758 8.432C125.96 8.60267 126.115 8.784 126.222 8.976H126.51V4.8H128.526V16H126.542V15.04H126.254C126.072 15.3387 125.79 15.6107 125.406 15.856C125.032 16.1013 124.483 16.224 123.758 16.224ZM124.366 14.464C124.984 14.464 125.502 14.2667 125.918 13.872C126.334 13.4667 126.542 12.88 126.542 12.112V11.952C126.542 11.184 126.334 10.6027 125.918 10.208C125.512 9.80267 124.995 9.6 124.366 9.6C123.747 9.6 123.23 9.80267 122.814 10.208C122.398 10.6027 122.19 11.184 122.19 11.952V12.112C122.19 12.88 122.398 13.4667 122.814 13.872C123.23 14.2667 123.747 14.464 124.366 14.464Z" fill="#110E08"/>
<path d="M6.57622 5.40905C6.66701 5.40905 6.71244 5.35994 6.73514 5.28278C6.96971 4.11136 6.9546 4.08331 8.27135 3.85182C8.36215 3.83781 8.41513 3.7887 8.41513 3.70451C8.41513 3.62035 8.36215 3.57124 8.27135 3.5572C6.96216 3.31173 7 3.28366 6.73514 2.12627C6.71244 2.04911 6.66701 2 6.57622 2C6.48539 2 6.43999 2.04911 6.41729 2.12627C6.15243 3.28366 6.19783 3.31173 4.88108 3.5572C4.79784 3.57124 4.7373 3.62035 4.7373 3.70451C4.7373 3.7887 4.79784 3.83781 4.88108 3.85182C6.19783 4.09735 6.18269 4.11136 6.41729 5.28278C6.43999 5.35994 6.48539 5.40905 6.57622 5.40905ZM2.91353 10.235C3.05731 10.235 3.15569 10.1508 3.17081 10.0246C3.44325 8.15168 3.51135 8.15168 5.60001 7.77994C5.73624 7.75887 5.83459 7.67472 5.83459 7.54145C5.83459 7.41518 5.73624 7.32399 5.60001 7.30295C3.51135 7.0364 3.43567 6.97326 3.17081 5.06532C3.15569 4.93908 3.05731 4.84789 2.91353 4.84789C2.77731 4.84789 2.67893 4.93908 2.66378 5.07236C2.41406 6.95222 2.30809 6.94521 0.234606 7.30295C0.0983823 7.33102 0 7.41518 0 7.54145C0 7.68172 0.0983824 7.75887 0.264861 7.77994C2.32324 8.08857 2.41406 8.13768 2.66378 10.0105C2.67893 10.1508 2.77731 10.235 2.91353 10.235ZM8.04433 18C8.2411 18 8.38488 17.8667 8.42269 17.6773C8.96 13.8334 9.5427 13.2512 13.6443 12.8303C13.8562 12.8093 14 12.662 14 12.4796C14 12.2972 13.8562 12.1569 13.6443 12.1289C9.5427 11.708 8.96 11.1258 8.42269 7.28191C8.38488 7.09252 8.2411 6.96625 8.04433 6.96625C7.84757 6.96625 7.70379 7.09252 7.67353 7.28191C7.13622 11.1258 6.54596 11.708 2.45187 12.1289C2.23244 12.1569 2.08866 12.2972 2.08866 12.4796C2.08866 12.662 2.23244 12.8093 2.45187 12.8303C6.53837 13.3284 7.10594 13.8404 7.67353 17.6773C7.70379 17.8667 7.84757 18 8.04433 18Z" fill="#110E08"/>
</svg>
